# xmcd
#
# Track frame offsets: 
#        150
#        13082
#        25067
#        38297
#        52400
#        70207
#        84750
#        99260
#        117647
#        136420
#
# Disc length: 2270 seconds
#
# Revision: 1
# Processed by: cddbd v1.4PL0 Copyright (c) Steve Scherf et al.
# Submitted via: ExactAudioCopy v0.90b3
#
DISCID=7b08dc0a
DTITLE=Barbara Mandrell - Christmas At Our House
DYEAR=1900
DGENRE=Country
TTITLE0=Christmas At Our House
TTITLE1=Winter Wonderland
TTITLE2=This Time Of Year
TTITLE3=Santa, Bring My Baby Home
TTITLE4=One Night A Year
TTITLE5=I'll Be Home For Christmas
TTITLE6=It Must Have Been The Mistletoe (Our First Christmas)
TTITLE7=From Our House To Yours
TTITLE8=Born To Die
TTITLE9=The Christmas Story
EXTD=
EXTT0=
EXTT1=
EXTT2=
EXTT3=
EXTT4=
EXTT5=
EXTT6=
EXTT7=
EXTT8=
EXTT9=
PLAYORDER=
